SplineFontDB: 3.0
FontName: StatusIcons
FullName: StatusIcons
FamilyName: StatusIcons
Weight: Medium
Copyright: Created by Sven Hertle with FontForge 2.0 (http://fontforge.sf.net)
UComments: "2014-6-14: Created."
Version: 001.000
ItalicAngle: 0
UnderlinePosition: -102
UnderlineWidth: 51
Ascent: 819
Descent: 205
InvalidEm: 0
LayerCount: 2
Layer: 0 0 "Back" 1
Layer: 1 0 "Zeichenebene" 0
XUID: [1021 463 349700487 10796016]
FSType: 0
OS2Version: 0
OS2_WeightWidthSlopeOnly: 0
OS2_UseTypoMetrics: 1
CreationTime: 1402779453
ModificationTime: 1484753062
OS2TypoAscent: 0
OS2TypoAOffset: 1
OS2TypoDescent: 0
OS2TypoDOffset: 1
OS2TypoLinegap: 92
OS2WinAscent: 0
OS2WinAOffset: 1
OS2WinDescent: 0
OS2WinDOffset: 1
HheadAscent: 0
HheadAOffset: 1
HheadDescent: 0
HheadDOffset: 1
OS2Vendor: 'PfEd'
MarkAttachClasses: 1
DEI: 91125

StartChar: uniE000
Encoding: 57344 57344 0
Width: 1024
VWidth: 0
Flags: HW
LayerCount: 2
Fore
SplineSet
512.031 769 m 0
 767.968 769 974 560.811 974 307 c 0
 974 53.1895 767.968 -155 512.031 -155 c 0
 256.096 -155 50 53.1895 50 307 c 0
 50 560.811 256.096 769 512.031 769 c 0
512.031 710.057 m 0
 292.213 710.057 112.576 530.968 112.576 307 c 0
 112.576 83.0322 292.213 -96.0566 512.031 -96.0566 c 0
 731.85 -96.0566 911.424 83.0322 911.424 307 c 0
 911.424 530.968 731.85 710.057 512.031 710.057 c 0
476.639 646.136 m 1
 547.361 646.136 l 1
 547.361 341.465 l 1
 784.817 150.939 l 1
 740.68 95.4521 l 1
 476.986 307 l 1
 476.639 307 l 1
 476.639 646.136 l 1
EndSplineSet
Validated: 1
EndChar

StartChar: uniE001
Encoding: 57345 57345 1
Width: 1024
VWidth: 0
Flags: HW
LayerCount: 2
Fore
SplineSet
974.6 124.555 m 1
 974.6 50.3398 l 1
 819.986 50.3398 l 1
 819.986 124.555 l 1
 974.6 124.555 l 1
974.6 234.847 m 1
 974.6 160.631 l 1
 819.986 160.631 l 1
 819.986 234.847 l 1
 974.6 234.847 l 1
974.6 345.138 m 1
 974.6 270.923 l 1
 819.986 270.923 l 1
 819.986 345.138 l 1
 974.6 345.138 l 1
974.6 455.43 m 1
 974.6 381.215 l 1
 819.986 381.215 l 1
 819.986 455.43 l 1
 974.6 455.43 l 1
974.6 565.722 m 1
 974.6 491.507 l 1
 819.986 491.507 l 1
 819.986 565.722 l 1
 974.6 565.722 l 1
204.613 124.555 m 1
 204.613 50.3398 l 1
 50 50.3398 l 1
 50 124.555 l 1
 204.613 124.555 l 1
204.613 234.847 m 1
 204.613 160.631 l 1
 50 160.631 l 1
 50 234.847 l 1
 204.613 234.847 l 1
204.613 345.138 m 1
 204.613 270.923 l 1
 50 270.923 l 1
 50 345.138 l 1
 204.613 345.138 l 1
204.613 455.43 m 1
 204.613 381.215 l 1
 50 381.215 l 1
 50 455.43 l 1
 204.613 455.43 l 1
204.613 565.722 m 1
 204.613 491.507 l 1
 50 491.507 l 1
 50 565.722 l 1
 204.613 565.722 l 1
695.467 -0.685547 m 1
 769.681 -0.685547 l 1
 769.681 -155.3 l 1
 695.467 -155.3 l 1
 695.467 -0.685547 l 1
585.176 -0.685547 m 1
 659.39 -0.685547 l 1
 659.39 -155.3 l 1
 585.176 -155.3 l 1
 585.176 -0.685547 l 1
474.885 -0.685547 m 1
 549.1 -0.685547 l 1
 549.1 -155.3 l 1
 474.885 -155.3 l 1
 474.885 -0.685547 l 1
364.594 -0.685547 m 1
 438.809 -0.685547 l 1
 438.809 -155.3 l 1
 364.594 -155.3 l 1
 364.594 -0.685547 l 1
254.303 -0.685547 m 1
 328.518 -0.685547 l 1
 328.518 -155.3 l 1
 254.303 -155.3 l 1
 254.303 -0.685547 l 1
694.735 769 m 1
 768.654 769 l 1
 768.654 615.001 l 1
 694.735 615.001 l 1
 694.735 769 l 1
584.884 769 m 1
 658.803 769 l 1
 658.803 615.001 l 1
 584.884 615.001 l 1
 584.884 769 l 1
475.032 769 m 1
 548.951 769 l 1
 548.951 615.001 l 1
 475.032 615.001 l 1
 475.032 769 l 1
365.182 769 m 1
 439.1 769 l 1
 439.1 615.001 l 1
 365.182 615.001 l 1
 365.182 769 l 1
255.33 769 m 1
 329.248 769 l 1
 329.248 615.001 l 1
 255.33 615.001 l 1
 255.33 769 l 1
255.33 563.655 m 1
 768.654 563.655 l 1
 768.654 50.3262 l 1
 255.33 50.3262 l 1
 255.33 563.655 l 1
EndSplineSet
Validated: 1
EndChar

StartChar: uniE010
Encoding: 57360 57360 3
Width: 1024
VWidth: 0
Flags: H
LayerCount: 2
Fore
SplineSet
50 569 m 1
 871.762 569 l 1
 871.762 436.919 l 1
 974 394.442 l 1
 974 265.276 l 1
 973.872 265.276 l 1
 973.872 219.558 l 1
 871.762 177.146 l 1
 871.762 45 l 1
 50 45 l 1
 50 569 l 1
115.066 502.616 m 1
 115.066 111.385 l 1
 806.694 111.385 l 1
 806.694 502.616 l 1
 115.066 502.616 l 1
EndSplineSet
Validated: 1
EndChar

StartChar: uniE011
Encoding: 57361 57361 4
Width: 1024
VWidth: 0
Flags: H
LayerCount: 2
Fore
SplineSet
50 569 m 1
 871.762 569 l 1
 871.762 436.854 l 1
 973.871 394.442 l 1
 973.871 348.724 l 1
 974 348.724 l 1
 974 219.558 l 1
 871.762 177.081 l 1
 871.762 45 l 1
 50 45 l 1
 50 569 l 1
284.748 502.616 m 1
 118.213 111.385 l 1
 806.694 111.385 l 1
 806.694 502.616 l 1
 284.748 502.616 l 1
EndSplineSet
Validated: 1
EndChar

StartChar: uniE012
Encoding: 57362 57362 5
Width: 1024
VWidth: 0
Flags: H
LayerCount: 2
Fore
SplineSet
50 569 m 1
 871.762 569 l 1
 871.762 436.854 l 1
 973.871 394.442 l 1
 973.871 348.724 l 1
 974 348.724 l 1
 974 219.558 l 1
 871.762 177.081 l 1
 871.762 45 l 1
 50 45 l 1
 50 569 l 1
463.48 502.616 m 1
 296.945 111.385 l 1
 806.694 111.385 l 1
 806.694 502.616 l 1
 463.48 502.616 l 1
EndSplineSet
Validated: 1
EndChar

StartChar: uniE013
Encoding: 57363 57363 6
Width: 1024
VWidth: 0
Flags: H
LayerCount: 2
Fore
SplineSet
50 569 m 1
 871.762 569 l 1
 871.762 436.854 l 1
 973.871 394.442 l 1
 973.871 348.724 l 1
 974 348.724 l 1
 974 219.558 l 1
 871.762 177.081 l 1
 871.762 45 l 1
 50 45 l 1
 50 569 l 1
637.238 502.616 m 1
 470.671 111.385 l 1
 806.694 111.385 l 1
 806.694 502.616 l 1
 637.238 502.616 l 1
EndSplineSet
Validated: 1
EndChar

StartChar: uniE014
Encoding: 57364 57364 7
Width: 1024
VWidth: 0
Flags: H
LayerCount: 2
Fore
SplineSet
50 569 m 1
 871.762 569 l 1
 871.762 436.854 l 1
 973.871 394.442 l 1
 973.871 348.724 l 1
 974 348.724 l 1
 974 219.558 l 1
 871.762 177.081 l 1
 871.762 45 l 1
 50 45 l 1
 50 569 l 1
805.058 502.616 m 1
 638.522 111.385 l 1
 806.694 111.385 l 1
 806.694 502.616 l 1
 805.058 502.616 l 1
EndSplineSet
Validated: 1
EndChar

StartChar: uniE015
Encoding: 57365 57365 8
Width: 1024
VWidth: 0
Flags: H
LayerCount: 2
Fore
SplineSet
50 569 m 1
 871.762 569 l 1
 871.762 436.854 l 1
 973.871 394.442 l 1
 973.871 348.724 l 1
 974 348.724 l 1
 974 219.558 l 1
 871.762 177.081 l 1
 871.762 45 l 1
 50 45 l 1
 50 569 l 1
EndSplineSet
Validated: 1
EndChar

StartChar: uniE018
Encoding: 57368 57368 9
Width: 1024
VWidth: 0
Flags: H
LayerCount: 2
Fore
SplineSet
374.596 393.984 m 1
 532.785 293.376 l 1
 705.354 374.072 l 1
 532.785 207.44 l 1
 374.596 308.048 l 1
 204.08 221.064 l 1
 374.596 393.984 l 1
50 569 m 1
 871.762 569 l 1
 871.762 436.919 l 1
 974 394.442 l 1
 974 265.276 l 1
 973.872 265.276 l 1
 973.872 219.558 l 1
 871.762 177.146 l 1
 871.762 45 l 1
 50 45 l 1
 50 569 l 1
115.066 502.616 m 1
 115.066 111.385 l 1
 806.694 111.385 l 1
 806.694 502.616 l 1
 115.066 502.616 l 1
EndSplineSet
Validated: 1
EndChar

StartChar: uniE019
Encoding: 57369 57369 10
Width: 1024
VWidth: 0
Flags: H
LayerCount: 2
Fore
SplineSet
374.596 393.984 m 1
 532.785 293.376 l 1
 705.354 374.072 l 1
 532.785 207.44 l 1
 374.596 308.048 l 1
 204.08 221.064 l 1
 374.596 393.984 l 1
50 569 m 1
 871.762 569 l 1
 871.762 436.854 l 1
 973.871 394.442 l 1
 973.871 348.724 l 1
 974 348.724 l 1
 974 219.558 l 1
 871.762 177.081 l 1
 871.762 45 l 1
 50 45 l 1
 50 569 l 1
284.748 502.616 m 1
 118.213 111.385 l 1
 806.694 111.385 l 1
 806.694 502.616 l 1
 284.748 502.616 l 1
EndSplineSet
Validated: 1
EndChar

StartChar: uniE01A
Encoding: 57370 57370 11
Width: 1024
VWidth: 0
Flags: H
LayerCount: 2
Fore
SplineSet
50 559 m 1
 862.868 559 l 1
 862.868 429.376 l 1
 963.873 387.773 l 1
 963.873 342.928 l 1
 964 342.928 l 1
 964 216.227 l 1
 862.868 174.561 l 1
 862.868 45 l 1
 50 45 l 1
 50 559 l 1
459.006 493.883 m 1
 404.265 366.379 l 1
 371.083 387.324 l 1
 202.413 217.704 l 1
 371.083 303.028 l 1
 375.813 300.04 l 1
 294.273 110.117 l 1
 798.505 110.117 l 1
 798.505 493.883 l 1
 459.006 493.883 l 1
404.323 366.269 m 1
 527.56 288.636 l 1
 698.262 367.792 l 1
 527.56 204.34 l 1
 375.88 300.04 l 1
 404.323 366.269 l 1
EndSplineSet
Validated: 1
EndChar

StartChar: uniE01B
Encoding: 57371 57371 12
Width: 1024
VWidth: 0
Flags: H
LayerCount: 2
Fore
SplineSet
50 569 m 1
 871.75 569 l 1
 871.75 436.844 l 1
 973.875 394.438 l 1
 973.875 348.719 l 1
 974 348.719 l 1
 974 219.562 l 1
 871.75 177.094 l 1
 871.75 45 l 1
 50 45 l 1
 50 569 l 1
637.25 502.625 m 1
 551.969 302.344 l 1
 532.781 293.375 l 1
 374.594 393.969 l 1
 204.094 221.062 l 1
 374.594 308.062 l 1
 516.094 218.062 l 1
 470.656 111.375 l 1
 806.688 111.375 l 1
 806.688 502.625 l 1
 637.25 502.625 l 1
516.188 218.062 m 1
 552.094 302.25 l 1
 705.344 374.062 l 1
 532.781 207.438 l 1
 516.188 218.062 l 1
EndSplineSet
Validated: 1
EndChar

StartChar: uniE01C
Encoding: 57372 57372 13
Width: 1024
VWidth: 0
Flags: H
LayerCount: 2
Fore
SplineSet
50 569 m 1
 871.762 569 l 1
 871.762 436.854 l 1
 973.871 394.442 l 1
 973.871 348.724 l 1
 974 348.724 l 1
 974 219.558 l 1
 871.762 177.081 l 1
 871.762 45 l 1
 50 45 l 1
 50 569 l 1
805.058 502.616 m 1
 638.522 111.385 l 1
 806.694 111.385 l 1
 806.694 502.616 l 1
 805.058 502.616 l 1
374.596 393.984 m 1
 204.08 221.064 l 1
 374.596 308.048 l 1
 532.785 207.44 l 1
 705.354 374.072 l 1
 532.785 293.376 l 1
 374.596 393.984 l 1
EndSplineSet
Validated: 1
EndChar

StartChar: uniE01D
Encoding: 57373 57373 14
Width: 1024
VWidth: 0
Flags: H
LayerCount: 2
Fore
SplineSet
50 569 m 1
 871.762 569 l 1
 871.762 436.854 l 1
 973.871 394.442 l 1
 973.871 348.724 l 1
 974 348.724 l 1
 974 219.558 l 1
 871.762 177.081 l 1
 871.762 45 l 1
 50 45 l 1
 50 569 l 1
374.596 393.984 m 1
 204.08 221.064 l 1
 374.596 308.048 l 1
 532.785 207.44 l 1
 705.354 374.072 l 1
 532.785 293.376 l 1
 374.596 393.984 l 1
EndSplineSet
Validated: 1
EndChar

StartChar: uniE01E
Encoding: 57374 57374 15
Width: 1024
VWidth: 0
Flags: H
LayerCount: 2
Fore
SplineSet
50 569 m 1
 871.762 569 l 1
 871.762 436.854 l 1
 973.871 394.442 l 1
 973.871 348.724 l 1
 974 348.724 l 1
 974 219.558 l 1
 871.762 177.081 l 1
 871.762 45 l 1
 50 45 l 1
 50 569 l 1
683.783 465.248 m 1
 639.485 446.875 l 1
 237.079 279.981 l 1
 192.781 261.608 l 1
 192.781 220.147 l 1
 192.781 196.469 l 1
 192.781 155.04 l 1
 237.079 173.413 l 1
 639.485 340.307 l 1
 683.783 358.68 l 1
 683.783 400.141 l 1
 683.783 423.819 l 1
 683.783 465.248 l 1
EndSplineSet
Validated: 1
EndChar

StartChar: uniE021
Encoding: 57377 57377 16
Width: 1024
VWidth: 0
Flags: H
LayerCount: 2
Fore
SplineSet
631.434 482.074 m 1
 693.414 453.096 746.042 382.812 746.443 307.787 c 0
 746.443 231.397 700.074 163.458 631.859 132.746 c 1
 593.774 193.695 l 1
 635.898 211.439 668.708 257.713 668.731 307.033 c 0
 668.731 360.31 636.823 403.576 593.348 421.125 c 1
 631.434 482.074 l 1
554.858 687 m 1
 554.858 -73 l 1
 298.598 161.922 l 1
 16 161.922 l 1
 16 452.078 l 1
 298.598 452.078 l 1
 554.858 687 l 1
EndSplineSet
EndChar

StartChar: uniE022
Encoding: 57378 57378 17
Width: 1024
VWidth: 0
Flags: H
LayerCount: 2
Fore
SplineSet
698.911 589.244 m 1
 804.544 540.008 878.282 432.627 878.282 308.05 c 0
 878.282 184.027 805.2 77.0439 700.321 27.5107 c 1
 663.253 91.6758 l 1
 747.343 127.835 805.654 211.096 805.654 308.05 c 0
 805.654 404.931 747.438 488.155 663.45 524.358 c 1
 698.911 589.244 l 1
631.434 482.074 m 1
 693.414 453.096 746.042 382.812 746.443 307.787 c 0
 746.443 231.397 700.074 163.458 631.859 132.746 c 1
 593.774 193.695 l 1
 635.898 211.439 668.708 257.713 668.731 307.033 c 0
 668.731 360.31 636.823 403.576 593.348 421.125 c 1
 631.434 482.074 l 1
554.858 687 m 1
 554.858 -73 l 1
 298.598 161.922 l 1
 16 161.922 l 1
 16 452.079 l 1
 298.598 452.079 l 1
 554.858 687 l 1
EndSplineSet
EndChar

StartChar: uniE023
Encoding: 57379 57379 18
Width: 1024
VWidth: 0
Flags: H
LayerCount: 2
Fore
SplineSet
756.4 687 m 1
 904.517 623.339 1007.19 476.729 1007.19 308.455 c 0
 1007.19 137.585 901.325 -10.9727 749.511 -73 c 1
 712.252 -10.6748 l 1
 838.703 38.1309 929.598 161.429 929.598 308.455 c 0
 929.598 452.822 841.958 574.283 719.076 624.837 c 1
 756.4 687 l 1
689.32 584.666 m 1
 793.47 536.121 866.173 430.248 866.173 307.421 c 0
 866.173 185.141 794.117 79.6582 690.711 30.8213 c 1
 654.163 94.085 l 1
 737.072 129.736 794.565 211.828 794.565 307.421 c 0
 794.565 402.94 737.165 484.996 654.357 520.691 c 1
 689.32 584.666 l 1
622.79 479.001 m 1
 683.901 450.43 735.789 381.133 736.186 307.162 c 0
 736.186 231.845 690.468 164.859 623.211 134.578 c 1
 585.66 194.672 l 1
 627.193 212.167 659.545 257.79 659.564 306.418 c 0
 659.564 358.946 628.104 401.605 585.24 418.907 c 1
 622.79 479.001 l 1
547.291 681.049 m 1
 547.291 -68.2783 l 1
 294.629 163.345 l 1
 16 163.345 l 1
 16 449.427 l 1
 294.629 449.427 l 1
 547.291 681.049 l 1
EndSplineSet
EndChar

StartChar: uniE020
Encoding: 57376 57376 19
Width: 1024
VWidth: 0
Flags: H
LayerCount: 2
Fore
SplineSet
554.87 687 m 1
 554.87 -73 l 1
 298.605 161.908 l 1
 16 161.908 l 1
 16 452.092 l 1
 298.605 452.092 l 1
 554.87 687 l 1
666.305 481.615 m 1
 788.795 359.158 l 1
 911.252 481.615 l 1
 963.213 429.653 l 1
 840.756 307.197 l 1
 963.213 184.707 l 1
 911.251 132.746 l 1
 788.795 255.235 l 1
 666.305 132.746 l 1
 614.343 184.707 l 1
 736.833 307.197 l 1
 614.343 429.653 l 1
 666.305 481.615 l 1
EndSplineSet
EndChar

StartChar: uniE028
Encoding: 57384 57384 20
Width: 1024
VWidth: 0
Flags: H
LayerCount: 2
Fore
SplineSet
101.605 757 m 1
 922.395 757 l 2
 932.761 756.997 943.079 752.223 950.409 744.003 c 0
 957.739 735.783 962 724.215 962 712.591 c 2
 962 -98.5596 l 2
 962.005 -110.19 957.74 -121.745 950.409 -129.973 c 0
 943.078 -138.199 932.766 -143 922.395 -143 c 2
 101.605 -143 l 2
 91.2344 -142.996 80.9219 -138.199 73.5908 -129.973 c 0
 66.2598 -121.745 61.9951 -110.19 62 -98.5596 c 2
 62 712.591 l 2
 62.0029 724.215 66.2607 735.783 73.5908 744.003 c 0
 80.9209 752.223 91.2393 756.997 101.605 757 c 1
149.891 659.598 m 1
 149.891 149.208 l 1
 303.287 149.208 l 1
 303.287 35.2773 l 1
 413.562 35.2773 l 1
 413.562 -45.5977 l 1
 610.438 -45.5977 l 1
 610.438 35.2773 l 1
 720.713 35.2773 l 1
 720.713 149.208 l 1
 874.109 149.208 l 1
 874.109 659.598 l 1
 149.891 659.598 l 1
244.13 626.98 m 1
 244.13 509.098 l 1
 293.831 509.098 l 1
 293.831 626.98 l 1
 244.13 626.98 l 1
245.13 510.098 m 1
 245.13 625.98 l 1
 292.831 625.98 l 1
 292.831 510.098 l 1
 245.13 510.098 l 1
244.63 509.598 m 1
 244.63 626.48 l 1
 293.331 626.48 l 1
 293.331 509.598 l 1
 244.63 509.598 l 1
341.532 626.98 m 1
 341.532 509.098 l 1
 391.233 509.098 l 1
 391.233 626.98 l 1
 341.532 626.98 l 1
342.532 510.098 m 1
 342.532 625.98 l 1
 390.233 625.98 l 1
 390.233 510.098 l 1
 342.532 510.098 l 1
342.032 509.598 m 1
 342.032 626.48 l 1
 390.733 626.48 l 1
 390.733 509.598 l 1
 342.032 509.598 l 1
438.936 626.98 m 1
 438.936 509.098 l 1
 488.637 509.098 l 1
 488.637 626.98 l 1
 438.936 626.98 l 1
439.936 510.098 m 1
 439.936 625.98 l 1
 487.637 625.98 l 1
 487.637 510.098 l 1
 439.936 510.098 l 1
439.436 509.598 m 1
 439.436 626.48 l 1
 488.137 626.48 l 1
 488.137 509.598 l 1
 439.436 509.598 l 1
536.338 626.98 m 1
 536.338 509.098 l 1
 586.039 509.098 l 1
 586.039 626.98 l 1
 536.338 626.98 l 1
537.338 510.098 m 1
 537.338 625.98 l 1
 585.039 625.98 l 1
 585.039 510.098 l 1
 537.338 510.098 l 1
536.838 509.598 m 1
 536.838 626.48 l 1
 585.539 626.48 l 1
 585.539 509.598 l 1
 536.838 509.598 l 1
633.74 626.98 m 1
 633.74 509.098 l 1
 683.441 509.098 l 1
 683.441 626.98 l 1
 633.74 626.98 l 1
634.74 510.098 m 1
 634.74 625.98 l 1
 682.441 625.98 l 1
 682.441 510.098 l 1
 634.74 510.098 l 1
634.24 509.598 m 1
 634.24 626.48 l 1
 682.941 626.48 l 1
 682.941 509.598 l 1
 634.24 509.598 l 1
731.143 626.98 m 1
 731.143 509.098 l 1
 780.844 509.098 l 1
 780.844 626.98 l 1
 731.143 626.98 l 1
732.143 510.098 m 1
 732.143 625.98 l 1
 779.844 625.98 l 1
 779.844 510.098 l 1
 732.143 510.098 l 1
731.643 509.598 m 1
 731.643 626.48 l 1
 780.344 626.48 l 1
 780.344 509.598 l 1
 731.643 509.598 l 1
EndSplineSet
EndChar

StartChar: uniE029
Encoding: 57385 57385 21
Width: 1024
VWidth: 0
Flags: H
LayerCount: 2
Fore
SplineSet
608.074 -46.6211 m 0
 608.074 7.04785 564.652 50.2451 511.428 50.2451 c 0
 458.203 50.2451 414.782 7.06738 414.782 -46.5986 c 0
 414.782 -100.346 458.203 -143.485 511.428 -143.485 c 0
 564.652 -143.485 608.074 -100.289 608.074 -46.6211 c 0
607.539 -46.6211 m 0
 607.539 -99.3623 564.605 -142.559 511.428 -142.559 c 0
 458.25 -142.559 415.316 -99.418 415.316 -46.5986 c 1
 415.316 6.14062 458.25 49.3184 511.428 49.3184 c 0
 564.605 49.3184 607.539 6.12109 607.539 -46.6211 c 0
607.807 -46.6211 m 0
 607.807 -46.627 607.807 -46.6377 607.807 -46.6436 c 0
 607.807 -99.8447 564.629 -143.022 511.428 -143.022 c 0
 458.227 -143.022 415.049 -99.8447 415.049 -46.6436 c 0
 415.049 -46.6377 415.049 -46.627 415.049 -46.6211 c 0
 415.049 -46.6143 415.049 -46.6045 415.049 -46.5986 c 0
 415.049 6.60352 458.227 49.7812 511.428 49.7812 c 0
 564.629 49.7812 607.807 6.60352 607.807 -46.5986 c 0
 607.807 -46.6045 607.807 -46.6143 607.807 -46.6211 c 0
511.428 293.657 m 0
 593.884 293.657 671.18 266.718 734.305 220.439 c 1
 686.355 161.89 l 1
 636.687 194.391 576.774 213.603 511.428 213.603 c 0
 445.549 213.603 385.205 194.061 335.295 161.076 c 1
 287.587 219.687 l 1
 350.896 266.416 428.535 293.657 511.428 293.657 c 0
511.428 525.329 m 0
 647.096 525.329 770.957 466.267 857.157 370.761 c 1
 810.775 314.108 l 1
 737.62 394.118 631.486 445.304 511.428 445.304 c 0
 390.257 445.304 283.286 393.167 210.062 311.879 c 1
 163.83 368.683 l 1
 250.104 465.414 374.774 525.329 511.428 525.329 c 0
511.428 757 m 0
 702.498 757 873.376 658.612 973.565 506.896 c 1
 926.821 449.822 l 1
 840.795 585.25 688.299 676.976 511.428 676.976 c 0
 335.236 676.976 183.215 585.96 96.998 451.388 c 1
 50.4346 508.583 l 1
 150.775 659.334 321.071 757 511.428 757 c 0
EndSplineSet
EndChar

StartChar: uniE02A
Encoding: 57386 57386 22
Width: 1024
VWidth: 0
Flags: H
LayerCount: 2
Fore
SplineSet
87.2919921875 428.90234375 m 1
 611.439453125 428.90234375 l 2
 618.05859375 428.900390625 624.6484375 425.8515625 629.329101562 420.602539062 c 0
 634.010742188 415.353515625 636.73046875 407.966796875 636.73046875 400.54296875 c 2
 636.73046875 -117.44921875 l 2
 636.734375 -124.876953125 634.010742188 -132.255859375 629.329101562 -137.508789062 c 0
 624.647460938 -142.762695312 618.0625 -145.828125 611.439453125 -145.828125 c 2
 87.2919921875 -145.828125 l 2
 80.6689453125 -145.826171875 74.0830078125 -142.762695312 69.4013671875 -137.508789062 c 0
 64.7197265625 -132.255859375 61.9970703125 -124.876953125 62 -117.44921875 c 2
 62 400.54296875 l 2
 62.001953125 407.966796875 64.720703125 415.353515625 69.4013671875 420.602539062 c 0
 74.0830078125 425.8515625 80.671875 428.900390625 87.2919921875 428.90234375 c 1
118.125976562 366.702148438 m 1
 118.125976562 40.7724609375 l 1
 216.083984375 40.7724609375 l 1
 216.083984375 -31.982421875 l 1
 286.50390625 -31.982421875 l 1
 286.50390625 -83.6279296875 l 1
 412.2265625 -83.6279296875 l 1
 412.2265625 -31.982421875 l 1
 482.647460938 -31.982421875 l 1
 482.647460938 40.7724609375 l 1
 580.604492188 40.7724609375 l 1
 580.604492188 366.702148438 l 1
 118.125976562 366.702148438 l 1
178.625976562 270.9140625 m 1
 178.625976562 345.553710938 l 1
 209.725585938 345.553710938 l 1
 209.725585938 270.9140625 l 1
 178.625976562 270.9140625 l 1
240.826171875 270.9140625 m 1
 240.826171875 345.553710938 l 1
 271.92578125 345.553710938 l 1
 271.92578125 270.9140625 l 1
 240.826171875 270.9140625 l 1
303.026367188 270.9140625 m 1
 303.026367188 345.553710938 l 1
 334.125976562 345.553710938 l 1
 334.125976562 270.9140625 l 1
 303.026367188 270.9140625 l 1
365.2265625 270.9140625 m 1
 365.2265625 345.553710938 l 1
 396.326171875 345.553710938 l 1
 396.326171875 270.9140625 l 1
 365.2265625 270.9140625 l 1
427.426757812 270.9140625 m 1
 427.426757812 345.553710938 l 1
 458.52734375 345.553710938 l 1
 458.52734375 270.9140625 l 1
 427.426757812 270.9140625 l 1
489.626953125 270.9140625 m 1
 489.626953125 345.553710938 l 1
 520.727539062 345.553710938 l 1
 520.727539062 270.9140625 l 1
 489.626953125 270.9140625 l 1
961.665039062 380.484375 m 1
 1010.05175781 393.083984375 l 1
 1010.05175781 393.083984375 925.829101562 742.543945312 611.69140625 747.262695312 c 0
 317.991210938 751.674804688 287.250976562 506.43359375 286.293945312 442.259765625 c 0
 286.119140625 430.581054688 286.63671875 423.155273438 286.723632812 421.997070312 c 2
 336.583007812 425.739257812 l 1
 386.442382812 429.481445312 l 1
 386.442382812 429.481445312 386.178710938 433.805664062 386.282226562 440.768554688 c 0
 387.071289062 493.610351562 399.021484375 650.446289062 610.189453125 647.274414062 c 0
 832.830078125 643.9296875 910.575195312 378.053710938 913.278320312 367.884765625 c 1
 961.665039062 380.484375 l 1
EndSplineSet
EndChar
